<?xml version='1.0' encoding='iso-8859-1'?>
<svg version="1.1" xmlns="http://www.w3.org/2000/svg" viewBox="0 0 64 64" xmlns:xlink="http://www.w3.org/1999/xlink" enable-background="new 0 0 64 64">
  <g>
    <g>
      <path d="M58.867,35.707C62.014,32.785,64,28.632,64,24c0-8.837-7.163-16-16-16c-6.715,0-12.45,4.144-14.823,10.008    C33.118,18.008,33.06,18,33,18c-7.31,0-13.646,4.134-16.824,10.186C15.465,28.075,14.742,28,14,28C6.268,28,0,34.268,0,42    s6.268,14,14,14h39c6.075,0,11-4.925,11-11C64,41.085,61.948,37.656,58.867,35.707z M48,10c7.732,0,14,6.268,14,14    c0,4.326-1.979,8.172-5.062,10.739C55.714,34.268,54.389,34,53,34c-0.422,0-0.838,0.029-1.248,0.076    c-1.294-8.355-8.018-14.901-16.458-15.921C37.509,13.345,42.358,10,48,10z M53,54H14C7.373,54,2,48.627,2,42    c0-6.627,5.373-12,12-12c1.147,0,2.253,0.171,3.304,0.471C19.864,24.324,25.925,20,33,20c9.231,0,16.726,7.362,16.976,16.532    C50.923,36.194,51.938,36,53,36c4.971,0,9,4.029,9,9C62,49.971,57.971,54,53,54z"/>
    </g>
  </g>
</svg>
